<?xml version="1.0" encoding="UTF-8" standalone="no"?>
<svg
   xmlns:dc="http://purl.org/dc/elements/1.1/"
   xmlns:cc="http://web.resource.org/cc/"
   xmlns:rdf="http://www.w3.org/1999/02/22-rdf-syntax-ns#"
   xmlns:svg="http://www.w3.org/2000/svg"
   xmlns="http://www.w3.org/2000/svg"
   xmlns:sodipodi="http://sodipodi.sourceforge.net/DTD/sodipodi-0.dtd"
   xmlns:inkscape="http://www.inkscape.org/namespaces/inkscape"
   width="128px"
   height="128px"
   viewBox="0 0 128 128"
   version="1.1"
   id="svg2"
   sodipodi:version="0.32"
   inkscape:version="0.45.1"
   sodipodi:docname="dish_Circle.svg"
   sodipodi:docbase="/home/cod/lavori/scourge_var/3dobjects/dish"
   inkscape:output_extension="org.inkscape.output.svg.inkscape"
   inkscape:label="uvmap"
   inkscape:export-filename="/home/cod/lavori/scourge_var/3dobjects/dish/dish_Circle.png"
   inkscape:export-xdpi="90"
   inkscape:export-ydpi="90">
  <metadata
     id="metadata109">
    <rdf:RDF>
      <cc:Work
         rdf:about="">
        <dc:format>image/svg+xml</dc:format>
        <dc:type
           rdf:resource="http://purl.org/dc/dcmitype/StillImage" />
      </cc:Work>
    </rdf:RDF>
  </metadata>
  <defs
     id="defs107" />
  <sodipodi:namedview
     inkscape:window-height="729"
     inkscape:window-width="1280"
     inkscape:pageshadow="2"
     inkscape:pageopacity="0.0"
     guidetolerance="10.0"
     gridtolerance="10.0"
     objecttolerance="10.0"
     borderopacity="1.0"
     bordercolor="#666666"
     pagecolor="#ffffff"
     id="base"
     inkscape:zoom="2.953125"
     inkscape:cx="64"
     inkscape:cy="64"
     inkscape:window-x="0"
     inkscape:window-y="0"
     inkscape:current-layer="layer2" />
  <desc
     id="desc4">UV-Map from Object: Circle. Exported from Blender3D with UV Exportscript</desc>
  <g
     inkscape:groupmode="layer"
     id="layer1"
     inkscape:label="uvmap"
     sodipodi:insensitive="true"
     style="display:none">
    <rect
       x="0"
       y="0"
       width="128"
       height="128"
       id="rect6"
       style="fill:none;stroke:#0000ff;stroke-width:1px" />
    <g
       style="fill:#f2daf2;stroke:#000000;stroke-width:1px"
       id="g8">
      <polygon
         points="91.43,52.638 84.994,43.006 64,64 91.43,52.638 "
         id="polygon10" />
      <polygon
         points="64,64 93.69,64 91.43,52.638 64,64 "
         id="polygon12" />
      <polygon
         points="64,64 91.43,75.362 93.69,64 64,64 "
         id="polygon14" />
      <polygon
         points="64,64 84.994,84.994 91.43,75.362 64,64 "
         id="polygon16" />
      <polygon
         points="64,64 75.362,91.43 84.994,84.994 64,64 "
         id="polygon18" />
      <polygon
         points="64,64 64,93.69 75.362,91.43 64,64 "
         id="polygon20" />
      <polygon
         points="64,64 52.638,91.43 64,93.69 64,64 "
         id="polygon22" />
      <polygon
         points="64,64 43.006,84.994 52.638,91.43 64,64 "
         id="polygon24" />
      <polygon
         points="64,64 36.57,75.362 43.006,84.994 64,64 "
         id="polygon26" />
      <polygon
         points="64,64 34.31,64 36.57,75.362 64,64 "
         id="polygon28" />
      <polygon
         points="64,64 36.57,52.638 34.31,64 64,64 "
         id="polygon30" />
      <polygon
         points="64,64 43.006,43.006 36.57,52.638 64,64 "
         id="polygon32" />
      <polygon
         points="64,64 52.638,36.57 43.006,43.006 64,64 "
         id="polygon34" />
      <polygon
         points="64,64 64,34.31 52.638,36.57 64,64 "
         id="polygon36" />
      <polygon
         points="64,64 75.362,36.57 64,34.31 64,64 "
         id="polygon38" />
      <polygon
         points="64,64 84.994,43.006 75.362,36.57 64,64 "
         id="polygon40" />
      <polygon
         points="75.362,36.57 84.994,43.006 107.299,20.701 87.434,7.427 75.362,36.57 "
         id="polygon42" />
      <polygon
         points="64,34.31 75.362,36.57 87.434,7.427 64,2.766 64,34.31 "
         id="polygon44" />
      <polygon
         points="52.638,36.57 64,34.31 64,2.766 40.567,7.427 52.638,36.57 "
         id="polygon46" />
      <polygon
         points="43.006,43.006 52.638,36.57 40.567,7.427 20.701,20.701 43.006,43.006 "
         id="polygon48" />
      <polygon
         points="36.57,52.638 43.006,43.006 20.701,20.701 7.427,40.566 36.57,52.638 "
         id="polygon50" />
      <polygon
         points="34.31,64 36.57,52.638 7.427,40.566 2.766,64 34.31,64 "
         id="polygon52" />
      <polygon
         points="36.57,75.362 34.31,64 2.766,64 7.427,87.433 36.57,75.362 "
         id="polygon54" />
      <polygon
         points="43.006,84.994 36.57,75.362 7.427,87.433 20.701,107.299 43.006,84.994 "
         id="polygon56" />
      <polygon
         points="52.638,91.43 43.006,84.994 20.701,107.299 40.567,120.573 52.638,91.43 "
         id="polygon58" />
      <polygon
         points="64,93.69 52.638,91.43 40.567,120.573 64,125.234 64,93.69 "
         id="polygon60" />
      <polygon
         points="75.362,91.43 64,93.69 64,125.234 87.433,120.573 75.362,91.43 "
         id="polygon62" />
      <polygon
         points="84.994,84.994 75.362,91.43 87.433,120.573 107.299,107.299 84.994,84.994 "
         id="polygon64" />
      <polygon
         points="91.43,75.362 84.994,84.994 107.299,107.299 120.573,87.433 91.43,75.362 "
         id="polygon66" />
      <polygon
         points="93.69,64 91.43,75.362 120.573,87.433 125.234,64 93.69,64 "
         id="polygon68" />
      <polygon
         points="91.43,52.638 93.69,64 125.234,64 120.573,40.567 91.43,52.638 "
         id="polygon70" />
      <polygon
         points="84.994,43.006 91.43,52.638 120.573,40.567 107.299,20.701 84.994,43.006 "
         id="polygon72" />
      <polygon
         points="84.994,43.006 91.43,52.638 120.573,40.567 107.299,20.701 84.994,43.006 "
         id="polygon74" />
      <polygon
         points="91.43,52.638 93.69,64 125.234,64 120.573,40.567 91.43,52.638 "
         id="polygon76" />
      <polygon
         points="93.69,64 91.43,75.362 120.573,87.433 125.234,64 93.69,64 "
         id="polygon78" />
      <polygon
         points="91.43,75.362 84.994,84.994 107.299,107.299 120.573,87.433 91.43,75.362 "
         id="polygon80" />
      <polygon
         points="84.994,84.994 75.362,91.43 87.433,120.573 107.299,107.299 84.994,84.994 "
         id="polygon82" />
      <polygon
         points="75.362,91.43 64,93.69 64,125.234 87.433,120.573 75.362,91.43 "
         id="polygon84" />
      <polygon
         points="64,93.69 52.638,91.43 40.567,120.573 64,125.234 64,93.69 "
         id="polygon86" />
      <polygon
         points="52.638,91.43 43.006,84.994 20.701,107.299 40.567,120.573 52.638,91.43 "
         id="polygon88" />
      <polygon
         points="43.006,84.994 36.57,75.362 7.427,87.433 20.701,107.299 43.006,84.994 "
         id="polygon90" />
      <polygon
         points="36.57,75.362 34.31,64 2.766,64 7.427,87.433 36.57,75.362 "
         id="polygon92" />
      <polygon
         points="34.31,64 36.57,52.638 7.427,40.566 2.766,64 34.31,64 "
         id="polygon94" />
      <polygon
         points="36.57,52.638 43.006,43.006 20.701,20.701 7.427,40.566 36.57,52.638 "
         id="polygon96" />
      <polygon
         points="43.006,43.006 52.638,36.57 40.567,7.427 20.701,20.701 43.006,43.006 "
         id="polygon98" />
      <polygon
         points="52.638,36.57 64,34.31 64,2.766 40.567,7.427 52.638,36.57 "
         id="polygon100" />
      <polygon
         points="64,34.31 75.362,36.57 87.434,7.427 64,2.766 64,34.31 "
         id="polygon102" />
      <polygon
         points="75.362,36.57 84.994,43.006 107.299,20.701 87.434,7.427 75.362,36.57 "
         id="polygon104" />
    </g>
  </g>
  <g
     inkscape:groupmode="layer"
     id="layer2"
     inkscape:label="dish"
     sodipodi:insensitive="true">
    <path
       sodipodi:type="arc"
       style="opacity:1;fill:none;fill-opacity:1;stroke:#0000ff;stroke-width:2;stroke-miterlimit:4;stroke-dasharray:none;stroke-opacity:1"
       id="path2313"
       sodipodi:cx="63.661377"
       sodipodi:cy="63.661377"
       sodipodi:rx="56.888889"
       sodipodi:ry="56.888889"
       d="M 120.55027 63.661377 A 56.888889 56.888889 0 1 1  6.7724876,63.661377 A 56.888889 56.888889 0 1 1  120.55027 63.661377 z" />
    <path
       d="M 120.55027 63.661377 A 56.888889 56.888889 0 1 1  6.7724876,63.661377 A 56.888889 56.888889 0 1 1  120.55027 63.661377 z"
       sodipodi:ry="56.888889"
       sodipodi:rx="56.888889"
       sodipodi:cy="63.661377"
       sodipodi:cx="63.661377"
       id="path3284"
       style="opacity:1;fill:none;fill-opacity:1;stroke:#0000ff;stroke-width:2.16774201;stroke-miterlimit:4;stroke-dasharray:none;stroke-opacity:1"
       sodipodi:type="arc"
       transform="matrix(0.922619,0,0,0.922619,4.9261779,4.9261779)" />
  </g>
</svg>
