/* XPM */
static char * del_xpm[] = {
"18 20 165 2",
"  	c None",
". 	c #BDC8D4",
"+ 	c #878F97",
"@ 	c #6C7279",
"# 	c #949DA6",
"$ 	c #D7E4F1",
"% 	c #BCC7D4",
"& 	c #868E97",
"* 	c #43474C",
"= 	c #454648",
"- 	c #626262",
"; 	c #9A9A9A",
"> 	c #A8A8A8",
", 	c #7E7E7E",
"' 	c #37383A",
") 	c #AFB9C5",
"! 	c #5E6369",
"~ 	c #464646",
"{ 	c #D2D2D2",
"] 	c #C4C4C4",
"^ 	c #8C8C8C",
"/ 	c #545454",
"( 	c #383838",
"_ 	c #68727C",
": 	c #AFC4DA",
"< 	c #C4CFDB",
"[ 	c #858D97",
"} 	c #707070",
"| 	c #DADCDD",
"1 	c #7D858D",
"2 	c #363B40",
"3 	c #000000",
"4 	c #474747",
"5 	c #616161",
"6 	c #040404",
"7 	c #1F1F1F",
"8 	c #464F58",
"9 	c #949CA4",
"0 	c #E1E1E1",
"a 	c #A0A9B5",
"b 	c #6A7178",
"c 	c #4D4E50",
"d 	c #1C1C1C",
"e 	c #818181",
"f 	c #C9C9C9",
"g 	c #E5E5E5",
"h 	c #4E4E4E",
"i 	c #7F7F7F",
"j 	c #BFBFBF",
"k 	c #6F6F6F",
"l 	c #5B5D5E",
"m 	c #373839",
"n 	c #C7D4E2",
"o 	c #777F88",
"p 	c #60676D",
"q 	c #AEAFB0",
"r 	c #6B6B6B",
"s 	c #D4D4D4",
"t 	c #161616",
"u 	c #FFFFFF",
"v 	c #FEFEFE",
"w 	c #FBFBFB",
"x 	c #D5D5D5",
"y 	c #2C2C2C",
"z 	c #9FA9B5",
"A 	c #9EA9B5",
"B 	c #1E2730",
"C 	c #708295",
"D 	c #B6B7B9",
"E 	c #ACACAC",
"F 	c #BABABA",
"G 	c #9C9C9C",
"H 	c #0F0F0F",
"I 	c #F9F9F9",
"J 	c #F3F3F3",
"K 	c #CBCBCB",
"L 	c #C2C2C2",
"M 	c #C5C8CC",
"N 	c #131415",
"O 	c #0A0D0F",
"P 	c #64819D",
"Q 	c #D1D2D4",
"R 	c #ADADAD",
"S 	c #5F5F5F",
"T 	c #CCCCCC",
"U 	c #CACDCF",
"V 	c #A7AEB5",
"W 	c #838F9C",
"X 	c #4D637A",
"Y 	c #282A2D",
"Z 	c #272A2D",
"` 	c #ACB4BB",
" .	c #6684A2",
"..	c #6A859F",
"+.	c #8794A1",
"@.	c #A0A8B0",
"#.	c #B8BCC0",
"$.	c #9DA5AD",
"%.	c #828E9A",
"&.	c #607386",
"*.	c #4F677E",
"=.	c #5A7693",
"-.	c #5E7B99",
";.	c #384858",
">.	c #4F545A",
",.	c #41464B",
"'.	c #6B8DAF",
").	c #6281A0",
"!.	c #536D88",
"~.	c #55708B",
"{.	c #4C637A",
"].	c #526476",
"^.	c #6F7A86",
"/.	c #9399A0",
"(.	c #4E5051",
"_.	c #757E88",
":.	c #687078",
"<.	c #CFD2D4",
"[.	c #9AA3AC",
"}.	c #828B94",
"|.	c #737B84",
"1.	c #717981",
"2.	c #7E848A",
"3.	c #989A9C",
"4.	c #A6A6A6",
"5.	c #B5B5B5",
"6.	c #3D3D3D",
"7.	c #9CA8B4",
"8.	c #BEBEBE",
"9.	c #A9A9A9",
"0.	c #A5A5A5",
"a.	c #A7A7A7",
"b.	c #B7B7B7",
"c.	c #1E1E1E",
"d.	c #C3D2E1",
"e.	c #2A2A2A",
"f.	c #B8B8B8",
"g.	c #1A1C1E",
"h.	c #ABABAB",
"i.	c #868686",
"j.	c #34383C",
"k.	c #B6B6B6",
"l.	c #BBBBBB",
"m.	c #676F78",
"n.	c #818B96",
"o.	c #AFAFAF",
"p.	c #B9B9B9",
"q.	c #9BA7B4",
"r.	c #4D535A",
"s.	c #888888",
"t.	c #484848",
"u.	c #262A2D",
"v.	c #C0D0E0",
"w.	c #656E78",
"x.	c #191919",
"y.	c #525252",
"z.	c #333333",
"A.	c #171819",
"B.	c #3F454B",
"C.	c #7F8996",
"D.	c #BECEE1",
"E.	c #97A5B3",
"F.	c #656E77",
"G.	c #8B97A4",
"H.	c #A4B3C2",
"            . + @ @ @ # $           ",
"    % & * = - ; > > > , ' )         ",
"  ! ~ ; { ] ^ / ( _ : < { / &       ",
"[ } | 1 2 3 4 5 3 6 7 8 9 0 / a     ",
"b > c d e f g h i j k 7 6 l 0 m n   ",
"o p q r s s { t j u v w x y ; } z   ",
"A B C D E F G H I J g K L ^ M N     ",
"  O P C Q R , S T ] f U V W X Y     ",
"  Z `  ...+.@.#.$.%.&.*.=.-.;.>.    ",
"  ,.> `  .'.).!.~.!.{.].^./.(._.    ",
"  :., 0 <.[.}.|.1.2.3.4.5.j 6.7.    ",
"  7./ 0 0 x 8.9.0.0.0.a.b.F c.d.    ",
"  d.e.0 0 x 8.9.0.0.0.> f.5.g.      ",
"    g.0 0 x 8.9.0.0.0.h.F i.,.      ",
"    j.k.0 x 8.9.0.0.0.h.l.- m.      ",
"    n.~ 0 x 8.9.0.0.0.o.p.6.q.      ",
"      r./ x 8.9.0.0.0.s.t.u.v.      ",
"        w.x.y./ y.z.A.B.C.D.        ",
"            E.F.G.H.                ",
"                                    "};
