/* XPM */
static char * go_jump_xpm[] = {
"16 16 81 1",
" 	c None",
".	c #3A7304",
"+	c #3A7404",
"@	c #3B7305",
"#	c #599124",
"$	c #86BC53",
"%	c #A3DC6C",
"&	c #95CC5F",
"*	c #7AB244",
"=	c #40780B",
"-	c #3B7504",
";	c #3E7608",
">	c #85C24A",
",	c #ABE473",
"'	c #98DE53",
")	c #77D31C",
"!	c #74D217",
"~	c #81D72E",
"{	c #A1DE67",
"]	c #4E8716",
"^	c #3A7305",
"/	c #4C8615",
"(	c #3E7708",
"_	c #67A22F",
":	c #A1E162",
"<	c #74D218",
"[	c #73D216",
"}	c #7AD421",
"|	c #A0D968",
"1	c #3B7405",
"2	c #3C7505",
"3	c #6EA737",
"4	c #8DDA42",
"5	c #71CF15",
"6	c #92D94C",
"7	c #5B9623",
"8	c #40780A",
"9	c #9ADA5C",
"0	c #6CC813",
"a	c #6BC612",
"b	c #78C928",
"c	c #7FB64B",
"d	c #3C7604",
"e	c #9ED26A",
"f	c #66BE11",
"g	c #64BC0F",
"h	c #68BB17",
"i	c #8BBE59",
"j	c #9DD06D",
"k	c #60B50F",
"l	c #5DB20C",
"m	c #5FB211",
"n	c #92C363",
"o	c #9FCF70",
"p	c #59AA0B",
"q	c #57A80A",
"r	c #56A70B",
"s	c #99C76C",
"t	c #77AD44",
"u	c #99C96C",
"v	c #9AC96F",
"w	c #52A007",
"x	c #509E07",
"y	c #4F9C06",
"z	c #98C46E",
"A	c #82B056",
"B	c #3B7406",
"C	c #7EAF4F",
"D	c #58A015",
"E	c #4E9A06",
"F	c #83B256",
"G	c #3C7407",
"H	c #3E7508",
"I	c #84B455",
"J	c #549E0F",
"K	c #3E7609",
"L	c #41790D",
"M	c #82B451",
"N	c #467C13",
"O	c #8BB95F",
"P	c #3C7406",
"   ....++.      ",
"  .@#$%&*=+.    ",
" -;>,')!~{]+    ",
".^/;(_:<[}|1.   ",
"+.2...34[567+   ",
"+..  .890abc.   ",
"d.   ..efghi.   ",
"d.    .jklmn.   ",
". .....opqrs....",
"   .^tuvwxyzzA1.",
"    .BCDEEEDFG. ",
"     .HIJEJIK.  ",
"      .LMJML.   ",
"       .NON.    ",
"       ..P..    ",
"        ...     "};
