/* XPM */
static char * new_xpm[] = {
"17 17 114 2",
"  	c None",
". 	c #5E646A",
"+ 	c #000000",
"@ 	c #949DA6",
"# 	c #35393C",
"$ 	c #ADADAD",
"% 	c #E7E7E7",
"& 	c #E8E8E8",
"* 	c #E9E9E9",
"= 	c #EAEAEA",
"- 	c #EBEBEB",
"; 	c #ECECEC",
"> 	c #EDEDED",
", 	c #EEEEEE",
"' 	c #EFEFEF",
") 	c #F0F0F0",
"! 	c #F1F1F1",
"~ 	c #F2F2F2",
"{ 	c #B6B6B6",
"] 	c #6B7179",
"^ 	c #35383C",
"/ 	c #AEAEAE",
"( 	c #F3F3F3",
"_ 	c #F4F4F4",
": 	c #B7B7B7",
"< 	c #6A7178",
"[ 	c #B0B0B0",
"} 	c #E3E3E3",
"| 	c #5F6F5E",
"1 	c #1E551C",
"2 	c #526A52",
"3 	c #C7C7C7",
"4 	c #B8B8B8",
"5 	c #B1B1B1",
"6 	c #5F6F5F",
"7 	c #31A02F",
"8 	c #4CB94C",
"9 	c #23A11F",
"0 	c #295128",
"a 	c #BABABA",
"b 	c #B3B3B3",
"c 	c #466545",
"d 	c #76D17A",
"e 	c #A8EFB1",
"f 	c #44B443",
"g 	c #186E15",
"h 	c #8C8C8C",
"i 	c #697178",
"j 	c #B4B4B4",
"k 	c #E5E5E5",
"l 	c #60705F",
"m 	c #11500F",
"n 	c #156413",
"o 	c #86DB8C",
"p 	c #1E8C1B",
"q 	c #234425",
"r 	c #ABB7C4",
"s 	c #34383C",
"t 	c #F5F5F5",
"u 	c #7D857D",
"v 	c #4AAF4A",
"w 	c #9FEAA7",
"x 	c #8FE095",
"y 	c #7ED683",
"z 	c #2BA528",
"A 	c #F6F6F6",
"B 	c #F7F7F7",
"C 	c #466645",
"D 	c #5DC35E",
"E 	c #3BAF3A",
"F 	c #F8F8F8",
"G 	c #F9F9F9",
"H 	c #6F776F",
"I 	c #20961D",
"J 	c #244E28",
"K 	c #B9B9B9",
"L 	c #FAFAFA",
"M 	c #435343",
"N 	c #A9B6C3",
"O 	c #BBBBBB",
"P 	c #FBFBFB",
"Q 	c #FCFCFC",
"R 	c #FDFDFD",
"S 	c #FEFEFE",
"T 	c #486847",
"U 	c #1A7817",
"V 	c #7F7F7F",
"W 	c #687078",
"X 	c #CFDFEF",
"Y 	c #BCBCBC",
"Z 	c #FFFFFF",
"` 	c #647363",
" .	c #153D14",
"..	c #7D7D7D",
"+.	c #676F78",
"@.	c #BDBDBD",
"#.	c #546353",
"$.	c #2C4B2B",
"%.	c #454545",
"&.	c #818B96",
"*.	c #BEBEBE",
"=.	c #CBCBCB",
"-.	c #B2B2B2",
";.	c #848484",
">.	c #161718",
",.	c #C2D1E1",
"'.	c #33373C",
").	c #BFBFBF",
"!.	c #D1D1D1",
"~.	c #A5A5A5",
"{.	c #636363",
"].	c #A6B4C2",
"^.	c #596069",
"/.	c #191B1E",
". + + + + + + + + + + + + + + @   ",
"# $ % & * = - ; > , ' ) ! ~ { ]   ",
"^ / * = - ; > , ' ) ! ~ ( _ : <   ",
"^ [ - ; > , ' ) ! } | 1 2 3 4 <   ",
"^ 5 > , ' ) ! ~ ( 6 7 8 9 0 a <   ",
"^ b ' ) ! ~ ( _ _ c d e f g h i   ",
"^ j ! ~ ( _ k l m n o e f p m q r ",
"s { ( _ t t u v o o w e x o y z q ",
"s : t t A B C D e e e e e e e E m ",
"s 4 A B F G H I f f x e D f E 9 J ",
"s K F G L L ; M m n o e f p m J N ",
"s O L P P Q R S S T y e f U V W X ",
"s Y P Q R S S Z Z ` 7 D z  ...+.  ",
"s @.R S S Z Z Z Z ' #.m $.h %.&.  ",
"s *.S Z Z Z Z Z Z Z Z =.-.;.>.,.  ",
"'.).Z Z Z Z Z Z Z Z !.~.{.>.].    ",
"^.+ + + + + + + + + + /.^.        "};
