/* XPM */
static char * prev_xpm[] = {
"16 16 89 1",
" 	c None",
".	c #858E96",
"+	c #565B61",
"@	c #2C2F32",
"#	c #5B6168",
"$	c #4B6781",
"%	c #5D666E",
"&	c #45637E",
"*	c #91ABC4",
"=	c #27292C",
"-	c #5F6B77",
";	c #425F7A",
">	c #8EACCA",
",	c #9FB6CD",
"'	c #3A4147",
")	c #394046",
"!	c #383F46",
"~	c #2E3338",
"{	c #4D5258",
"]	c #5A656E",
"^	c #496681",
"/	c #87A8C7",
"(	c #A0BAD3",
"_	c #9FB9D2",
":	c #A8C0D6",
"<	c #A9C0D6",
"[	c #A9C0D7",
"}	c #A8BFD6",
"|	c #A7BFD6",
"1	c #8597A9",
"2	c #545B62",
"3	c #415E7A",
"4	c #8BAAC9",
"5	c #9CB7D1",
"6	c #9DB7D1",
"7	c #9BB6D0",
"8	c #9AB5CF",
"9	c #9DB8D1",
"0	c #758DA2",
"a	c #5B6268",
"b	c #243749",
"c	c #4D7AA3",
"d	c #5C86AD",
"e	c #5D87AE",
"f	c #5C86AE",
"g	c #5D86AE",
"h	c #5B84AB",
"i	c #4A6C8C",
"j	c #4C5258",
"k	c #A9B5C3",
"l	c #252B30",
"m	c #2B455E",
"n	c #3E6386",
"o	c #3F6689",
"p	c #40668A",
"q	c #3A5C7C",
"r	c #4C5158",
"s	c #A2AFBB",
"t	c #30363E",
"u	c #263D53",
"v	c #3C6081",
"w	c #3F6588",
"x	c #3E6487",
"y	c #3C6182",
"z	c #3D6284",
"A	c #385A79",
"B	c #4B5157",
"C	c #95A1AC",
"D	c #3A414A",
"E	c #263C52",
"F	c #3A5D7D",
"G	c #1C2E3E",
"H	c #1D2F3F",
"I	c #1D2E3F",
"J	c #1D2E3E",
"K	c #929DA9",
"L	c #335370",
"M	c #17181A",
"N	c #6D757E",
"O	c #6E767F",
"P	c #767F88",
"Q	c #9BA7B3",
"R	c #95A0AC",
"S	c #282B2E",
"T	c #A2AFBC",
"U	c #25272B",
"V	c #2B2E32",
"W	c #AEBBCA",
"X	c #5E656D",
"        .       ",
"       +@       ",
"      #$@       ",
"     %&*=       ",
"    -;>,''')!~{ ",
"   ]^/(_:<[}|1{ ",
"  234556788890{ ",
" abcdefgfdddhij ",
" klmnooooooopqr ",
"  stuvwxyyyyzAB ",
"   CDEvFGGGHIJB ",
"    KDuLMNNNOPQ ",
"     RtuS       ",
"      TUV       ",
"       WX       ",
"                "};
