/* XPM */
static char * nextfast_xpm[] = {
"18 16 89 1",
" 	c None",
".	c #858E96",
"+	c #2C2F32",
"@	c #565B61",
"#	c #4B6781",
"$	c #5B6168",
"%	c #27292C",
"&	c #91ABC4",
"*	c #45637E",
"=	c #5D666E",
"-	c #4D5258",
";	c #2E3338",
">	c #383F46",
",	c #394046",
"'	c #3A4147",
")	c #9FB6CD",
"!	c #8EACCA",
"~	c #425F7A",
"{	c #5F6B77",
"]	c #8597A9",
"^	c #A7BFD6",
"/	c #A8BFD6",
"(	c #A9C0D7",
"_	c #A9C0D6",
":	c #A8C0D6",
"<	c #9FB9D2",
"[	c #A0BAD3",
"}	c #87A8C7",
"|	c #496681",
"1	c #5A656E",
"2	c #758DA2",
"3	c #9DB8D1",
"4	c #9AB5CF",
"5	c #9BB6D0",
"6	c #9DB7D1",
"7	c #9CB7D1",
"8	c #8BAAC9",
"9	c #415E7A",
"0	c #545B62",
"a	c #4C5258",
"b	c #4A6C8C",
"c	c #5B84AB",
"d	c #5C86AD",
"e	c #5C86AE",
"f	c #5D86AE",
"g	c #5D87AE",
"h	c #4D7AA3",
"i	c #243749",
"j	c #5B6268",
"k	c #4C5158",
"l	c #3A5C7C",
"m	c #40668A",
"n	c #3F6689",
"o	c #3E6386",
"p	c #2B455E",
"q	c #252B30",
"r	c #A9B5C3",
"s	c #4B5157",
"t	c #385A79",
"u	c #3D6284",
"v	c #3C6182",
"w	c #3E6487",
"x	c #3F6588",
"y	c #3C6081",
"z	c #263D53",
"A	c #30363E",
"B	c #A2AFBB",
"C	c #1D2E3E",
"D	c #1D2E3F",
"E	c #1D2F3F",
"F	c #1C2E3E",
"G	c #3A5D7D",
"H	c #263C52",
"I	c #3A414A",
"J	c #95A1AC",
"K	c #9BA7B3",
"L	c #767F88",
"M	c #6E767F",
"N	c #6D757E",
"O	c #17181A",
"P	c #335370",
"Q	c #929DA9",
"R	c #282B2E",
"S	c #95A0AC",
"T	c #2B2E32",
"U	c #25272B",
"V	c #A2AFBC",
"W	c #5E656D",
"X	c #AEBBCA",
"      .   .       ",
"      +@  +@      ",
"      +#$ +#$     ",
"      %&*=%&*=    ",
"-;>,''')!~{)!~{   ",
"-]^/(_:<[}|1[}|1  ",
"-2344456778907890 ",
"abcdddefegdhijdhij",
"klmnnnnnnnopqropqr",
"stuvvvvwxyzAByzAB ",
"sCDEFFFGyHIJyHIJ  ",
"KLMNNNOPzIQPzIQ   ",
"      RzASRzAS    ",
"      TUV TUV     ",
"      WX  WX      ",
"                  "};
